<mxfile host="app.diagrams.net" modified="2021-12-03T03:11:12.432Z" agent="5.0 (Macintosh; Intel Mac OS X 10_15_6) AppleWebKit/537.36 (KHTML, like Gecko) Chrome/75.0.3770.80 Safari/537.36" etag="WI9A5uixx1al3YHt_z7E" version="14.9.9" type="github">
  <diagram id="wFE0QG_FPsp0jaGvCLVb" name="Page-1">
    <mxGraphModel dx="2516" dy="771" grid="1" gridSize="10" guides="1" tooltips="1" connect="1" arrows="1" fold="1" page="1" pageScale="1" pageWidth="850" pageHeight="1100" math="0" shadow="0">
      <root>
        <mxCell id="0" />
        <mxCell id="1" parent="0" />
        <mxCell id="Ohz8SHrbHRsh5rSiHTiS-2" value="" style="verticalLabelPosition=bottom;verticalAlign=top;html=1;shape=mxgraph.basic.patternFillRect;fillStyle=hor;step=5;fillStrokeWidth=0.2;fillStrokeColor=#dddddd;" vertex="1" parent="1">
          <mxGeometry x="60" y="95" width="980" height="150" as="geometry" />
        </mxCell>
        <mxCell id="Ohz8SHrbHRsh5rSiHTiS-4" value="&lt;font style=&quot;font-size: 18px&quot;&gt;BBS-RDS&amp;nbsp;实例&amp;nbsp;&lt;/font&gt;" style="text;html=1;align=center;verticalAlign=middle;resizable=0;points=[];autosize=1;strokeColor=none;" vertex="1" parent="1">
          <mxGeometry x="-72" y="155" width="140" height="20" as="geometry" />
        </mxCell>
        <mxCell id="Ohz8SHrbHRsh5rSiHTiS-11" value="" style="verticalLabelPosition=bottom;verticalAlign=top;html=1;shape=mxgraph.basic.patternFillRect;fillStyle=hor;step=5;fillStrokeWidth=0.2;fillStrokeColor=#dddddd;" vertex="1" parent="1">
          <mxGeometry x="60" y="280" width="980" height="120" as="geometry" />
        </mxCell>
        <mxCell id="Ohz8SHrbHRsh5rSiHTiS-18" value="" style="outlineConnect=0;dashed=0;verticalLabelPosition=bottom;verticalAlign=top;align=center;html=1;shape=mxgraph.aws3.instance;fillColor=#97D077;gradientColor=none;" vertex="1" parent="1">
          <mxGeometry x="548" y="317.5" width="50" height="45" as="geometry" />
        </mxCell>
        <mxCell id="Ohz8SHrbHRsh5rSiHTiS-24" value="&lt;font style=&quot;font-size: 18px&quot;&gt;DTS 实例&lt;/font&gt;" style="text;html=1;align=center;verticalAlign=middle;resizable=0;points=[];autosize=1;strokeColor=none;" vertex="1" parent="1">
          <mxGeometry x="-30" y="330" width="90" height="20" as="geometry" />
        </mxCell>
        <mxCell id="Ohz8SHrbHRsh5rSiHTiS-25" value="" style="verticalLabelPosition=bottom;verticalAlign=top;html=1;shape=mxgraph.basic.patternFillRect;fillStyle=hor;step=5;fillStrokeWidth=0.2;fillStrokeColor=#dddddd;" vertex="1" parent="1">
          <mxGeometry x="60" y="460.96" width="980" height="120" as="geometry" />
        </mxCell>
        <mxCell id="Ohz8SHrbHRsh5rSiHTiS-26" value="&lt;font style=&quot;font-size: 18px&quot;&gt;DTS&amp;nbsp;服务&lt;/font&gt;" style="text;html=1;align=center;verticalAlign=middle;resizable=0;points=[];autosize=1;strokeColor=none;" vertex="1" parent="1">
          <mxGeometry x="-30" y="510.96" width="90" height="20" as="geometry" />
        </mxCell>
        <mxCell id="Ohz8SHrbHRsh5rSiHTiS-27" value="" style="outlineConnect=0;dashed=0;verticalLabelPosition=bottom;verticalAlign=top;align=center;html=1;shape=mxgraph.aws3.worker;fillColor=#FFB570;gradientColor=none;" vertex="1" parent="1">
          <mxGeometry x="230" y="489.46" width="60" height="63" as="geometry" />
        </mxCell>
        <mxCell id="Ohz8SHrbHRsh5rSiHTiS-28" value="" style="outlineConnect=0;dashed=0;verticalLabelPosition=bottom;verticalAlign=top;align=center;html=1;shape=mxgraph.aws3.worker;fillColor=#97D077;gradientColor=none;" vertex="1" parent="1">
          <mxGeometry x="740" y="489.46" width="60" height="63" as="geometry" />
        </mxCell>
        <mxCell id="Ohz8SHrbHRsh5rSiHTiS-29" value="" style="endArrow=none;dashed=1;html=1;entryX=0.459;entryY=0;entryDx=0;entryDy=0;entryPerimeter=0;exitX=0.459;exitY=0.992;exitDx=0;exitDy=0;exitPerimeter=0;" edge="1" parent="1" source="Ohz8SHrbHRsh5rSiHTiS-11" target="Ohz8SHrbHRsh5rSiHTiS-11">
          <mxGeometry width="50" height="50" relative="1" as="geometry">
            <mxPoint x="460" y="390" as="sourcePoint" />
            <mxPoint x="510" y="340" as="targetPoint" />
          </mxGeometry>
        </mxCell>
        <mxCell id="Ohz8SHrbHRsh5rSiHTiS-30" value="" style="endArrow=none;dashed=1;html=1;exitX=0.459;exitY=-0.008;exitDx=0;exitDy=0;exitPerimeter=0;entryX=0.458;entryY=1;entryDx=0;entryDy=0;entryPerimeter=0;" edge="1" parent="1" source="Ohz8SHrbHRsh5rSiHTiS-25" target="Ohz8SHrbHRsh5rSiHTiS-25">
          <mxGeometry width="50" height="50" relative="1" as="geometry">
            <mxPoint x="460" y="360.96" as="sourcePoint" />
            <mxPoint x="510" y="310.96" as="targetPoint" />
          </mxGeometry>
        </mxCell>
        <mxCell id="Ohz8SHrbHRsh5rSiHTiS-36" value="" style="outlineConnect=0;dashed=0;verticalLabelPosition=bottom;verticalAlign=top;align=center;html=1;shape=mxgraph.aws3.instance;fillColor=#97D077;gradientColor=none;" vertex="1" parent="1">
          <mxGeometry x="640" y="317.5" width="50" height="45" as="geometry" />
        </mxCell>
        <mxCell id="Ohz8SHrbHRsh5rSiHTiS-37" value="" style="outlineConnect=0;dashed=0;verticalLabelPosition=bottom;verticalAlign=top;align=center;html=1;shape=mxgraph.aws3.instance;fillColor=#97D077;gradientColor=none;" vertex="1" parent="1">
          <mxGeometry x="720" y="317.5" width="50" height="45" as="geometry" />
        </mxCell>
        <mxCell id="Ohz8SHrbHRsh5rSiHTiS-38" value="" style="outlineConnect=0;dashed=0;verticalLabelPosition=bottom;verticalAlign=top;align=center;html=1;shape=mxgraph.aws3.instance;fillColor=#97D077;gradientColor=none;" vertex="1" parent="1">
          <mxGeometry x="810" y="317.5" width="50" height="45" as="geometry" />
        </mxCell>
        <mxCell id="Ohz8SHrbHRsh5rSiHTiS-39" value="" style="outlineConnect=0;dashed=0;verticalLabelPosition=bottom;verticalAlign=top;align=center;html=1;shape=mxgraph.aws3.instance;fillColor=#97D077;gradientColor=none;" vertex="1" parent="1">
          <mxGeometry x="890" y="317.5" width="50" height="45" as="geometry" />
        </mxCell>
        <mxCell id="Ohz8SHrbHRsh5rSiHTiS-40" value="" style="outlineConnect=0;dashed=0;verticalLabelPosition=bottom;verticalAlign=top;align=center;html=1;shape=mxgraph.aws3.instance;fillColor=#97D077;gradientColor=none;" vertex="1" parent="1">
          <mxGeometry x="970" y="317.5" width="50" height="45" as="geometry" />
        </mxCell>
        <mxCell id="Ohz8SHrbHRsh5rSiHTiS-42" value="" style="outlineConnect=0;dashed=0;verticalLabelPosition=bottom;verticalAlign=top;align=center;html=1;shape=mxgraph.aws3.instance;fillColor=#FFB570;gradientColor=none;" vertex="1" parent="1">
          <mxGeometry x="71" y="317.5" width="50" height="45" as="geometry" />
        </mxCell>
        <mxCell id="Ohz8SHrbHRsh5rSiHTiS-43" value="" style="outlineConnect=0;dashed=0;verticalLabelPosition=bottom;verticalAlign=top;align=center;html=1;shape=mxgraph.aws3.instance;fillColor=#FFB570;gradientColor=none;" vertex="1" parent="1">
          <mxGeometry x="371" y="317.5" width="50" height="45" as="geometry" />
        </mxCell>
        <mxCell id="Ohz8SHrbHRsh5rSiHTiS-44" value="" style="outlineConnect=0;dashed=0;verticalLabelPosition=bottom;verticalAlign=top;align=center;html=1;shape=mxgraph.aws3.instance;fillColor=#FFB570;gradientColor=none;" vertex="1" parent="1">
          <mxGeometry x="441" y="317.5" width="50" height="45" as="geometry" />
        </mxCell>
        <mxCell id="Ohz8SHrbHRsh5rSiHTiS-45" value="" style="outlineConnect=0;dashed=0;verticalLabelPosition=bottom;verticalAlign=top;align=center;html=1;shape=mxgraph.aws3.instance;fillColor=#FFB570;gradientColor=none;" vertex="1" parent="1">
          <mxGeometry x="291" y="317.5" width="50" height="45" as="geometry" />
        </mxCell>
        <mxCell id="Ohz8SHrbHRsh5rSiHTiS-46" value="" style="outlineConnect=0;dashed=0;verticalLabelPosition=bottom;verticalAlign=top;align=center;html=1;shape=mxgraph.aws3.instance;fillColor=#FFB570;gradientColor=none;" vertex="1" parent="1">
          <mxGeometry x="221" y="317.5" width="50" height="45" as="geometry" />
        </mxCell>
        <mxCell id="Ohz8SHrbHRsh5rSiHTiS-47" value="" style="outlineConnect=0;dashed=0;verticalLabelPosition=bottom;verticalAlign=top;align=center;html=1;shape=mxgraph.aws3.instance;fillColor=#FFB570;gradientColor=none;" vertex="1" parent="1">
          <mxGeometry x="141" y="317.5" width="50" height="45" as="geometry" />
        </mxCell>
        <mxCell id="Ohz8SHrbHRsh5rSiHTiS-48" value="老的 dts&amp;nbsp;订阅服务" style="text;html=1;align=center;verticalAlign=middle;resizable=0;points=[];autosize=1;strokeColor=none;" vertex="1" parent="1">
          <mxGeometry x="296" y="510.96" width="110" height="20" as="geometry" />
        </mxCell>
        <mxCell id="Ohz8SHrbHRsh5rSiHTiS-49" value="ugcaudit-dts-msv" style="text;html=1;align=center;verticalAlign=middle;resizable=0;points=[];autosize=1;strokeColor=none;" vertex="1" parent="1">
          <mxGeometry x="120" y="510.96" width="110" height="20" as="geometry" />
        </mxCell>
        <mxCell id="Ohz8SHrbHRsh5rSiHTiS-50" value="" style="verticalLabelPosition=bottom;verticalAlign=top;html=1;shape=mxgraph.basic.patternFillRect;fillStyle=hor;step=5;fillStrokeWidth=0.2;fillStrokeColor=#dddddd;" vertex="1" parent="1">
          <mxGeometry x="60" y="640" width="980" height="220" as="geometry" />
        </mxCell>
        <mxCell id="Ohz8SHrbHRsh5rSiHTiS-52" value="&lt;font style=&quot;font-size: 18px&quot;&gt;RocketMQ&amp;nbsp;&lt;/font&gt;" style="text;html=1;align=center;verticalAlign=middle;resizable=0;points=[];autosize=1;strokeColor=none;" vertex="1" parent="1">
          <mxGeometry x="-50" y="740" width="110" height="20" as="geometry" />
        </mxCell>
        <mxCell id="Ohz8SHrbHRsh5rSiHTiS-54" value="UGCAUDIT_DTS" style="rounded=1;whiteSpace=wrap;html=1;fillColor=#FFB570;" vertex="1" parent="1">
          <mxGeometry x="420" y="650" width="120" height="40" as="geometry" />
        </mxCell>
        <mxCell id="Ohz8SHrbHRsh5rSiHTiS-55" value="thread" style="rounded=1;whiteSpace=wrap;html=1;fillColor=#FFB570;" vertex="1" parent="1">
          <mxGeometry x="140" y="750" width="60" height="50" as="geometry" />
        </mxCell>
        <mxCell id="Ohz8SHrbHRsh5rSiHTiS-57" value="thread" style="rounded=1;whiteSpace=wrap;html=1;fillColor=#FFB570;" vertex="1" parent="1">
          <mxGeometry x="260" y="750" width="60" height="50" as="geometry" />
        </mxCell>
        <mxCell id="Ohz8SHrbHRsh5rSiHTiS-59" value="bbs_reply" style="rounded=1;whiteSpace=wrap;html=1;fillColor=#97D077;strokeColor=#97D077;" vertex="1" parent="1">
          <mxGeometry x="770" y="760" width="70" height="50" as="geometry" />
        </mxCell>
        <mxCell id="Ohz8SHrbHRsh5rSiHTiS-60" value="bbs_thread" style="rounded=1;whiteSpace=wrap;html=1;fillColor=#97D077;" vertex="1" parent="1">
          <mxGeometry x="640" y="750" width="70" height="50" as="geometry" />
        </mxCell>
        <mxCell id="Ohz8SHrbHRsh5rSiHTiS-61" value="" style="verticalLabelPosition=bottom;verticalAlign=top;html=1;shape=mxgraph.basic.patternFillRect;fillStyle=hor;step=5;fillStrokeWidth=0.2;fillStrokeColor=#dddddd;" vertex="1" parent="1">
          <mxGeometry x="60" y="920" width="980" height="120" as="geometry" />
        </mxCell>
        <mxCell id="Ohz8SHrbHRsh5rSiHTiS-62" value="&lt;font style=&quot;font-size: 18px&quot;&gt;数据同步服务&lt;/font&gt;" style="text;html=1;align=center;verticalAlign=middle;resizable=0;points=[];autosize=1;strokeColor=none;" vertex="1" parent="1">
          <mxGeometry x="-62" y="970" width="120" height="20" as="geometry" />
        </mxCell>
        <mxCell id="Ohz8SHrbHRsh5rSiHTiS-64" value="" style="outlineConnect=0;fontColor=#232F3E;gradientColor=none;strokeColor=#ffffff;fillColor=#FFB570;dashed=0;verticalLabelPosition=middle;verticalAlign=bottom;align=center;html=1;whiteSpace=wrap;fontSize=10;fontStyle=1;spacing=3;shape=mxgraph.aws4.productIcon;prIcon=mxgraph.aws4.reserved_instance_reporting;" vertex="1" parent="1">
          <mxGeometry x="230" y="935" width="75" height="105" as="geometry" />
        </mxCell>
        <mxCell id="Ohz8SHrbHRsh5rSiHTiS-67" value="" style="endArrow=none;dashed=1;html=1;exitX=0.459;exitY=-0.008;exitDx=0;exitDy=0;exitPerimeter=0;entryX=0.458;entryY=1;entryDx=0;entryDy=0;entryPerimeter=0;" edge="1" parent="1">
          <mxGeometry width="50" height="50" relative="1" as="geometry">
            <mxPoint x="509.4800000000002" y="920" as="sourcePoint" />
            <mxPoint x="508.50000000000017" y="1040.96" as="targetPoint" />
          </mxGeometry>
        </mxCell>
        <mxCell id="Ohz8SHrbHRsh5rSiHTiS-68" value="&lt;span style=&quot;color: rgb(35 , 47 , 62) ; font-size: 10px ; font-weight: 700&quot;&gt;ugcaudit-nswoole&lt;/span&gt;" style="text;html=1;align=center;verticalAlign=middle;resizable=0;points=[];autosize=1;strokeColor=none;" vertex="1" parent="1">
          <mxGeometry x="207.5" y="1020" width="120" height="20" as="geometry" />
        </mxCell>
        <mxCell id="Ohz8SHrbHRsh5rSiHTiS-69" value="ugcaudit-async-svc" style="text;html=1;align=center;verticalAlign=middle;resizable=0;points=[];autosize=1;strokeColor=none;" vertex="1" parent="1">
          <mxGeometry x="717" y="1017" width="120" height="20" as="geometry" />
        </mxCell>
        <mxCell id="Ohz8SHrbHRsh5rSiHTiS-66" value="" style="outlineConnect=0;fontColor=#232F3E;gradientColor=none;strokeColor=#ffffff;fillColor=#333333;dashed=0;verticalLabelPosition=middle;verticalAlign=bottom;align=center;html=1;whiteSpace=wrap;fontSize=10;fontStyle=1;spacing=3;shape=mxgraph.aws4.productIcon;prIcon=mxgraph.aws4.reserved_instance_reporting;" vertex="1" parent="1">
          <mxGeometry x="742" y="940" width="70" height="63" as="geometry" />
        </mxCell>
        <mxCell id="Ohz8SHrbHRsh5rSiHTiS-71" value="" style="verticalLabelPosition=bottom;verticalAlign=top;html=1;shape=mxgraph.basic.patternFillRect;fillStyle=hor;step=5;fillStrokeWidth=0.2;fillStrokeColor=#dddddd;strokeColor=#97D077;" vertex="1" parent="1">
          <mxGeometry x="60" y="1130" width="980" height="110" as="geometry" />
        </mxCell>
        <mxCell id="Ohz8SHrbHRsh5rSiHTiS-73" value="&lt;font style=&quot;font-size: 18px&quot;&gt;UGC-RDS 实例&amp;nbsp;&lt;/font&gt;" style="text;html=1;align=center;verticalAlign=middle;resizable=0;points=[];autosize=1;strokeColor=none;" vertex="1" parent="1">
          <mxGeometry x="-82" y="1165" width="150" height="20" as="geometry" />
        </mxCell>
        <mxCell id="Ohz8SHrbHRsh5rSiHTiS-79" value="" style="shape=datastore;whiteSpace=wrap;html=1;strokeColor=#FFB570;fillColor=#333333;" vertex="1" parent="1">
          <mxGeometry x="230" y="1145" width="60" height="60" as="geometry" />
        </mxCell>
        <mxCell id="Ohz8SHrbHRsh5rSiHTiS-80" value="" style="shape=datastore;whiteSpace=wrap;html=1;strokeColor=#FF0000;fillColor=#333333;" vertex="1" parent="1">
          <mxGeometry x="110" y="130" width="60" height="60" as="geometry" />
        </mxCell>
        <mxCell id="Ohz8SHrbHRsh5rSiHTiS-81" value="" style="shape=datastore;whiteSpace=wrap;html=1;strokeColor=#67AB9F;fillColor=#333333;" vertex="1" parent="1">
          <mxGeometry x="747" y="1150" width="60" height="60" as="geometry" />
        </mxCell>
        <mxCell id="Ohz8SHrbHRsh5rSiHTiS-83" value="" style="endArrow=none;dashed=1;html=1;exitX=0.459;exitY=-0.008;exitDx=0;exitDy=0;exitPerimeter=0;" edge="1" parent="1">
          <mxGeometry width="50" height="50" relative="1" as="geometry">
            <mxPoint x="509.48" y="1130" as="sourcePoint" />
            <mxPoint x="509" y="1240" as="targetPoint" />
          </mxGeometry>
        </mxCell>
        <mxCell id="Ohz8SHrbHRsh5rSiHTiS-84" value="fg_message" style="text;html=1;align=center;verticalAlign=middle;resizable=0;points=[];autosize=1;strokeColor=none;" vertex="1" parent="1">
          <mxGeometry x="217" y="1212" width="80" height="20" as="geometry" />
        </mxCell>
        <mxCell id="Ohz8SHrbHRsh5rSiHTiS-85" value="ugc_message" style="text;html=1;align=center;verticalAlign=middle;resizable=0;points=[];autosize=1;strokeColor=none;" vertex="1" parent="1">
          <mxGeometry x="732" y="1216" width="90" height="20" as="geometry" />
        </mxCell>
        <mxCell id="Ohz8SHrbHRsh5rSiHTiS-86" value="" style="shape=datastore;whiteSpace=wrap;html=1;strokeColor=#FF0000;fillColor=#333333;" vertex="1" parent="1">
          <mxGeometry x="267.5" y="135" width="60" height="60" as="geometry" />
        </mxCell>
        <mxCell id="Ohz8SHrbHRsh5rSiHTiS-87" value="" style="shape=datastore;whiteSpace=wrap;html=1;strokeColor=#FF0000;fillColor=#333333;" vertex="1" parent="1">
          <mxGeometry x="870" y="135" width="60" height="60" as="geometry" />
        </mxCell>
        <mxCell id="Ohz8SHrbHRsh5rSiHTiS-88" value="" style="shape=datastore;whiteSpace=wrap;html=1;strokeColor=#FF0000;fillColor=#333333;" vertex="1" parent="1">
          <mxGeometry x="735" y="135" width="60" height="60" as="geometry" />
        </mxCell>
        <mxCell id="Ohz8SHrbHRsh5rSiHTiS-89" value="" style="shape=datastore;whiteSpace=wrap;html=1;strokeColor=#FF0000;fillColor=#333333;" vertex="1" parent="1">
          <mxGeometry x="598" y="140" width="60" height="60" as="geometry" />
        </mxCell>
        <mxCell id="Ohz8SHrbHRsh5rSiHTiS-90" value="" style="shape=datastore;whiteSpace=wrap;html=1;strokeColor=#FF0000;fillColor=#333333;" vertex="1" parent="1">
          <mxGeometry x="430" y="140" width="60" height="60" as="geometry" />
        </mxCell>
        <mxCell id="Ohz8SHrbHRsh5rSiHTiS-92" value="&lt;span style=&quot;color: rgb(51 , 51 , 51) ; font-family: &amp;#34;helvetica neue&amp;#34; , &amp;#34;luxi sans&amp;#34; , &amp;#34;dejavu sans&amp;#34; , &amp;#34;tahoma&amp;#34; , &amp;#34;hiragino sans gb&amp;#34; , &amp;#34;stheiti&amp;#34; , &amp;#34;microsoft yahei&amp;#34; ; font-size: 12px ; font-style: normal ; font-weight: 400 ; letter-spacing: normal ; text-indent: 0px ; text-transform: none ; word-spacing: 0px ; background-color: rgb(255 , 255 , 255) ; display: inline ; float: none&quot;&gt;abbs_posts0&lt;/span&gt;" style="text;html=1;align=center;verticalAlign=middle;resizable=0;points=[];autosize=1;strokeColor=none;" vertex="1" parent="1">
          <mxGeometry x="593" y="205" width="80" height="20" as="geometry" />
        </mxCell>
        <mxCell id="Ohz8SHrbHRsh5rSiHTiS-98" value="abbs_posts1" style="text;html=1;align=center;verticalAlign=middle;resizable=0;points=[];autosize=1;strokeColor=none;" vertex="1" parent="1">
          <mxGeometry x="732" y="205" width="80" height="20" as="geometry" />
        </mxCell>
        <mxCell id="Ohz8SHrbHRsh5rSiHTiS-99" value="abbs_posts2" style="text;html=1;align=center;verticalAlign=middle;resizable=0;points=[];autosize=1;strokeColor=none;" vertex="1" parent="1">
          <mxGeometry x="865" y="205" width="80" height="20" as="geometry" />
        </mxCell>
        <mxCell id="Ohz8SHrbHRsh5rSiHTiS-100" value="&lt;span style=&quot;color: rgb(51 , 51 , 51) ; font-family: &amp;#34;helvetica neue&amp;#34; , &amp;#34;luxi sans&amp;#34; , &amp;#34;dejavu sans&amp;#34; , &amp;#34;tahoma&amp;#34; , &amp;#34;hiragino sans gb&amp;#34; , &amp;#34;stheiti&amp;#34; , &amp;#34;microsoft yahei&amp;#34; ; background-color: rgb(255 , 255 , 255)&quot;&gt;abbs_tmsgs0&lt;/span&gt;" style="text;html=1;align=center;verticalAlign=middle;resizable=0;points=[];autosize=1;strokeColor=none;" vertex="1" parent="1">
          <mxGeometry x="95" y="200" width="90" height="20" as="geometry" />
        </mxCell>
        <mxCell id="Ohz8SHrbHRsh5rSiHTiS-101" value="&lt;span style=&quot;color: rgb(51 , 51 , 51) ; font-family: &amp;#34;helvetica neue&amp;#34; , &amp;#34;luxi sans&amp;#34; , &amp;#34;dejavu sans&amp;#34; , &amp;#34;tahoma&amp;#34; , &amp;#34;hiragino sans gb&amp;#34; , &amp;#34;stheiti&amp;#34; , &amp;#34;microsoft yahei&amp;#34; ; font-size: 12px ; font-style: normal ; font-weight: 400 ; letter-spacing: normal ; text-indent: 0px ; text-transform: none ; word-spacing: 0px ; background-color: rgb(255 , 255 , 255) ; display: inline ; float: none&quot;&gt;abbs_tmsgs1&lt;/span&gt;" style="text;whiteSpace=wrap;html=1;" vertex="1" parent="1">
          <mxGeometry x="255" y="200" width="70" height="30" as="geometry" />
        </mxCell>
        <mxCell id="Ohz8SHrbHRsh5rSiHTiS-102" value="&lt;span style=&quot;color: rgb(51 , 51 , 51) ; font-family: &amp;#34;helvetica neue&amp;#34; , &amp;#34;luxi sans&amp;#34; , &amp;#34;dejavu sans&amp;#34; , &amp;#34;tahoma&amp;#34; , &amp;#34;hiragino sans gb&amp;#34; , &amp;#34;stheiti&amp;#34; , &amp;#34;microsoft yahei&amp;#34; ; background-color: rgb(255 , 255 , 255)&quot;&gt;abbs_tmsgs2&lt;/span&gt;" style="text;html=1;align=center;verticalAlign=middle;resizable=0;points=[];autosize=1;strokeColor=none;" vertex="1" parent="1">
          <mxGeometry x="415" y="205" width="90" height="20" as="geometry" />
        </mxCell>
        <mxCell id="Ohz8SHrbHRsh5rSiHTiS-108" value="" style="verticalLabelPosition=bottom;verticalAlign=top;html=1;shape=mxgraph.basic.polygon;polyCoords=[[0.09,0],[0.75,0],[1,0],[1,0.65],[1,1],[0,1],[0,0.75],[0,0.25]];polyline=1;fillColor=none;strokeColor=#97D077;" vertex="1" parent="1">
          <mxGeometry x="68" y="115" width="455" height="110" as="geometry" />
        </mxCell>
        <mxCell id="Ohz8SHrbHRsh5rSiHTiS-109" value="主贴" style="text;html=1;align=center;verticalAlign=middle;resizable=0;points=[];autosize=1;strokeColor=none;" vertex="1" parent="1">
          <mxGeometry x="60" y="110" width="40" height="20" as="geometry" />
        </mxCell>
        <mxCell id="Ohz8SHrbHRsh5rSiHTiS-110" value="" style="verticalLabelPosition=bottom;verticalAlign=top;html=1;shape=mxgraph.basic.polygon;polyCoords=[[0.09,0],[0.75,0],[1,0],[1,0.65],[1,1],[0,1],[0,0.75],[0,0.25]];polyline=1;fillColor=none;strokeColor=#97D077;" vertex="1" parent="1">
          <mxGeometry x="550" y="115" width="430" height="110" as="geometry" />
        </mxCell>
        <mxCell id="Ohz8SHrbHRsh5rSiHTiS-111" value="回贴" style="text;html=1;align=center;verticalAlign=middle;resizable=0;points=[];autosize=1;strokeColor=none;" vertex="1" parent="1">
          <mxGeometry x="548" y="115" width="40" height="20" as="geometry" />
        </mxCell>
        <mxCell id="Ohz8SHrbHRsh5rSiHTiS-113" value="tmsgs1" style="text;html=1;align=center;verticalAlign=middle;resizable=0;points=[];autosize=1;strokeColor=none;" vertex="1" parent="1">
          <mxGeometry x="141" y="370" width="50" height="20" as="geometry" />
        </mxCell>
        <mxCell id="Ohz8SHrbHRsh5rSiHTiS-114" value="tmsgs0" style="text;html=1;align=center;verticalAlign=middle;resizable=0;points=[];autosize=1;strokeColor=none;" vertex="1" parent="1">
          <mxGeometry x="71" y="370" width="50" height="20" as="geometry" />
        </mxCell>
        <mxCell id="Ohz8SHrbHRsh5rSiHTiS-115" value="posts0" style="text;html=1;align=center;verticalAlign=middle;resizable=0;points=[];autosize=1;strokeColor=none;" vertex="1" parent="1">
          <mxGeometry x="290" y="370" width="50" height="20" as="geometry" />
        </mxCell>
        <mxCell id="Ohz8SHrbHRsh5rSiHTiS-116" value="tmsgs2" style="text;html=1;align=center;verticalAlign=middle;resizable=0;points=[];autosize=1;strokeColor=none;" vertex="1" parent="1">
          <mxGeometry x="217" y="370" width="50" height="20" as="geometry" />
        </mxCell>
        <mxCell id="Ohz8SHrbHRsh5rSiHTiS-118" value="posts2" style="text;html=1;align=center;verticalAlign=middle;resizable=0;points=[];autosize=1;strokeColor=none;" vertex="1" parent="1">
          <mxGeometry x="435" y="370" width="50" height="20" as="geometry" />
        </mxCell>
        <mxCell id="Ohz8SHrbHRsh5rSiHTiS-119" value="posts1" style="text;html=1;align=center;verticalAlign=middle;resizable=0;points=[];autosize=1;strokeColor=none;" vertex="1" parent="1">
          <mxGeometry x="370" y="370" width="50" height="20" as="geometry" />
        </mxCell>
        <mxCell id="Ohz8SHrbHRsh5rSiHTiS-120" value="new_tmsgs2" style="text;html=1;align=center;verticalAlign=middle;resizable=0;points=[];autosize=1;strokeColor=none;" vertex="1" parent="1">
          <mxGeometry x="705" y="370" width="80" height="20" as="geometry" />
        </mxCell>
        <mxCell id="Ohz8SHrbHRsh5rSiHTiS-121" value="new_tmsgs1" style="text;html=1;align=center;verticalAlign=middle;resizable=0;points=[];autosize=1;strokeColor=none;" vertex="1" parent="1">
          <mxGeometry x="625" y="370" width="80" height="20" as="geometry" />
        </mxCell>
        <mxCell id="Ohz8SHrbHRsh5rSiHTiS-122" value="new_tmsgs0" style="text;html=1;align=center;verticalAlign=middle;resizable=0;points=[];autosize=1;strokeColor=none;" vertex="1" parent="1">
          <mxGeometry x="533" y="370" width="80" height="20" as="geometry" />
        </mxCell>
        <mxCell id="Ohz8SHrbHRsh5rSiHTiS-124" value="new_posts2" style="text;html=1;align=center;verticalAlign=middle;resizable=0;points=[];autosize=1;strokeColor=none;" vertex="1" parent="1">
          <mxGeometry x="955" y="370" width="80" height="20" as="geometry" />
        </mxCell>
        <mxCell id="Ohz8SHrbHRsh5rSiHTiS-125" value="new_posts1" style="text;html=1;align=center;verticalAlign=middle;resizable=0;points=[];autosize=1;strokeColor=none;" vertex="1" parent="1">
          <mxGeometry x="875" y="370" width="80" height="20" as="geometry" />
        </mxCell>
        <mxCell id="Ohz8SHrbHRsh5rSiHTiS-126" value="new_posts0" style="text;html=1;align=center;verticalAlign=middle;resizable=0;points=[];autosize=1;strokeColor=none;" vertex="1" parent="1">
          <mxGeometry x="795" y="370" width="80" height="20" as="geometry" />
        </mxCell>
      </root>
    </mxGraphModel>
  </diagram>
</mxfile>
